<svg width="35" height="25" viewBox="0 0 35 25" fill="none" xmlns="http://www.w3.org/2000/svg">
<path d="M29 3.57143C29 1.60714 27.4647 0 25.5882 0H22.1765C21.2382 0 20.4706 0.803571 20.4706 1.78571C20.4706 2.76786 21.2382 3.57143 22.1765 3.57143H25.5882V8.30357L19.6518 16.0714H13.6471V8.92857C13.6471 7.94643 12.8794 7.14286 11.9412 7.14286H6.82353C3.05353 7.14286 0 10.3393 0 14.2857V17.8571C0 18.8393 0.767647 19.6429 1.70588 19.6429H3.41176C3.41176 22.6071 5.69765 25 8.52941 25C11.3612 25 13.6471 22.6071 13.6471 19.6429H19.6518C20.6924 19.6429 21.6647 19.1429 22.3129 18.3036L28.2494 10.5357C28.7441 9.89286 29 9.10714 29 8.30357V3.57143ZM8.52941 21.4286C7.59118 21.4286 6.82353 20.625 6.82353 19.6429H10.2353C10.2353 20.625 9.46765 21.4286 8.52941 21.4286Z" fill="#F7D452"/>
<path d="M6.76471 2H12.0588C13.0294 2 13.8235 2.79615 13.8235 3.76923C13.8235 4.74231 13.0294 5.53846 12.0588 5.53846H6.76471C5.79412 5.53846 5 4.74231 5 3.76923C5 2.79615 5.79412 2 6.76471 2ZM29.7059 14.3846C26.7765 14.3846 24.4118 16.7554 24.4118 19.6923C24.4118 22.6292 26.7765 25 29.7059 25C32.6353 25 35 22.6292 35 19.6923C35 16.7554 32.6353 14.3846 29.7059 14.3846ZM29.7059 21.4615C28.7353 21.4615 27.9412 20.6654 27.9412 19.6923C27.9412 18.7192 28.7353 17.9231 29.7059 17.9231C30.6765 17.9231 31.4706 18.7192 31.4706 19.6923C31.4706 20.6654 30.6765 21.4615 29.7059 21.4615Z" fill="#F7D452"/>
</svg>
