<svg width="38" height="26" viewBox="0 0 38 26" fill="none" xmlns="http://www.w3.org/2000/svg">
<path d="M1.30544 3.1005L17.0554 11.5614C17.5846 11.8449 18.2692 11.9793 18.958 11.9793C19.6468 11.9793 20.3314 11.8449 20.8606 11.5614L36.6106 3.1005C37.6375 2.5482 38.6077 0.399902 36.724 0.399902H1.19414C-0.68956 0.399902 0.28064 2.5482 1.30544 3.1005ZM37.0873 7.7268L20.8606 16.1835C20.1466 16.5573 19.6468 16.6014 18.958 16.6014C18.2692 16.6014 17.7694 16.5573 17.0554 16.1835C16.3414 15.8097 2.07614 8.3316 0.91064 7.7247C0.0916401 7.2963 0.10004 7.7982 0.10004 8.1846V23.4999C0.10004 24.3819 1.28864 25.5999 2.20004 25.5999H35.8C36.7114 25.5999 37.9 24.3819 37.9 23.4999V8.1867C37.9 7.8003 37.9084 7.2984 37.0873 7.7268Z" fill="black"/>
</svg>
