<svg width="29" height="29" viewBox="0 0 29 29" fill="none" xmlns="http://www.w3.org/2000/svg">
<path d="M27.2695 4.86816L23.6294 1.23145C23.3726 0.973538 23.0674 0.768905 22.7313 0.629303C22.3952 0.489702 22.0348 0.417882 21.6709 0.417969C20.9292 0.417969 20.2319 0.708496 19.709 1.23145L15.792 5.14844C15.5341 5.40522 15.3295 5.71042 15.1899 6.04652C15.0503 6.38262 14.9784 6.74299 14.9785 7.10693C14.9785 7.84863 15.269 8.5459 15.792 9.06885L18.6563 11.9331C17.9858 13.4109 17.0536 14.7553 15.9048 15.9014C14.7588 17.053 13.4145 17.9886 11.9365 18.6631L9.07227 15.7988C8.81549 15.5409 8.51028 15.3363 8.17418 15.1967C7.83808 15.0571 7.47771 14.9853 7.11377 14.9854C6.37207 14.9854 5.67481 15.2759 5.15186 15.7988L1.23145 19.7124C0.973223 19.9697 0.768414 20.2754 0.628806 20.6121C0.489198 20.9488 0.417545 21.3098 0.417971 21.6743C0.417971 22.416 0.708498 23.1133 1.23145 23.6362L4.86475 27.2695C5.69873 28.1069 6.85059 28.582 8.03321 28.582C8.28272 28.582 8.52197 28.5615 8.75781 28.5205C13.3652 27.7617 17.9351 25.311 21.6231 21.6265C25.3076 17.9453 27.7549 13.3789 28.5239 8.75781C28.7563 7.34619 28.2881 5.89355 27.2695 4.86816Z" fill="black"/>
</svg>
